HIERARCHY
ROOT Hips
{
    OFFSET 0.000000 0.000000 0.000000
    CHANNELS 6 Xposition Yposition Zposition Zrotation Xrotation Yrotation
    JOINT Spine
    {
        OFFSET -0.000000 14.517291 0.000000
        CHANNELS 3 Zrotation Xrotation Yrotation
        JOINT Spine1
        {
            OFFSET -0.000000 37.558300 0.000000
            CHANNELS 3 Zrotation Xrotation Yrotation
            JOINT Neck
            {
                OFFSET -0.000000 37.404057 3.400369
                CHANNELS 3 Zrotation Xrotation Yrotation
                JOINT Head
                {
                    OFFSET -0.000000 24.785618 -3.540803
                    CHANNELS 3 Zrotation Xrotation Yrotation
                    End Site
                    {
                        OFFSET -0.000000 35.408028 0.000000
                    }
                }
            }
            JOINT LeftShoulder
            {
                OFFSET 6.992933 33.973492 -0.192664
                CHANNELS 3 Zrotation Xrotation Yrotation
                JOINT LeftArm
                {
                    OFFSET 21.527611 0.000000 0.000000
                    CHANNELS 3 Zrotation Xrotation Yrotation
                    JOINT LeftForeArm
                    {
                        OFFSET 56.353916 0.000000 0.000000
                        CHANNELS 3 Zrotation Xrotation Yrotation
                        JOINT LeftHand
                        {
                            OFFSET 47.774071 0.000000 0.000000
                            CHANNELS 3 Zrotation Xrotation Yrotation
                            End Site
                            {
                                OFFSET 26.556021 0.000000 0.000000
                            }
                        }
                    }
                }
            }
            JOINT RightShoulder
            {
                OFFSET -7.065357 33.973492 -0.192664
                CHANNELS 3 Zrotation Xrotation Yrotation
                JOINT RightArm
                {
                    OFFSET -21.527611 0.000000 0.000000
                    CHANNELS 3 Zrotation Xrotation Yrotation
                    JOINT RightForeArm
                    {
                        OFFSET -56.353916 0.000000 0.000000
                        CHANNELS 3 Zrotation Xrotation Yrotation
                        JOINT RightHand
                        {
                            OFFSET -47.774071 0.000000 0.000000
                            CHANNELS 3 Zrotation Xrotation Yrotation
                            End Site
                            {
                                OFFSET -26.556021 0.000000 0.000000
                            }
                        }
                    }
                }
            }
        }
    }
    JOINT LeftUpLeg
    {
        OFFSET 17.704014 0.000000 0.000000
        CHANNELS 3 Zrotation Xrotation Yrotation
        JOINT LeftLeg
        {
            OFFSET -0.000000 -81.181816 0.000000
            CHANNELS 3 Zrotation Xrotation Yrotation
            JOINT LeftFoot
            {
                OFFSET -0.000000 -62.821102 0.000000
                CHANNELS 3 Zrotation Xrotation Yrotation
                JOINT LeftToeBase
                {
                    OFFSET -0.000000 -11.507608 26.556021
                    CHANNELS 3 Zrotation Xrotation Yrotation
                    End Site
                    {
                        OFFSET -0.000000 0.000000 7.081605
                    }
                }
            }
        }
    }
    JOINT RightUpLeg
    {
        OFFSET -17.704014 0.000000 0.000000
        CHANNELS 3 Zrotation Xrotation Yrotation
        JOINT RightLeg
        {
            OFFSET -0.000000 -81.181816 0.000000
            CHANNELS 3 Zrotation Xrotation Yrotation
            JOINT RightFoot
            {
                OFFSET -0.000000 -62.821102 0.000000
                CHANNELS 3 Zrotation Xrotation Yrotation
                JOINT RightToeBase
                {
                    OFFSET -0.000000 -11.507608 26.556021
                    CHANNELS 3 Zrotation Xrotation Yrotation
                    End Site
                    {
                        OFFSET -0.000000 0.000000 7.081605
                    }
                }
            }
        }
    }
}
MOTION
Frames:    10
Frame Time:    0.008333
-13.898095    164.530090    -47.981133    -3.986049    -1.556161    35.259937    2.435453    -3.259140    0.691370    -7.262813    1.747909    0.316594    3.840573    0.070641    -16.004829    12.245557    -0.239390    -15.511897    6.736171    7.034966    -17.186979    -34.943756    22.409824    -47.170357    -8.053310    -7.788177    -116.148460    0.843153    -20.411592    -5.862533    -16.533916    -4.927015    -5.334905    18.937092    -22.814392    52.775471    -8.859230    -14.082865    47.371487    6.577849    -8.398511    32.225632    8.092116    -8.233096    -6.242182    -10.937091    20.467766    -19.478064    2.532208    -12.552312    44.577679    0.000000    0.000000    0.000000    5.089495    -7.920898    2.021338    7.805778    11.739787    -15.049663    -2.900194    -2.397790    -14.348185    0.000000    0.000000    0.000000    
-13.770504    164.527283    -47.962116    -3.980700    -1.566355    35.195118    2.425657    -3.326629    0.696890    -7.262217    1.804741    0.321593    3.825127    0.010865    -15.972556    12.279684    -0.128077    -15.484857    6.717323    6.987546    -17.138229    -34.988270    22.340519    -47.213188    -8.060714    -7.738274    -116.139626    0.811722    -20.372007    -5.890327    -16.548441    -4.919375    -5.297760    18.930311    -22.800117    52.766964    -8.898324    -14.197458    47.294746    6.620869    -8.496057    32.175682    8.045397    -8.152064    -6.179207    -10.888127    20.435116    -19.473259    2.571706    -12.569125    44.558357    0.000000    0.000000    0.000000    5.066499    -7.913197    2.027873    7.793329    11.829661    -14.972833    -2.865263    -2.455795    -14.375937    0.000000    0.000000    0.000000    
-13.648937    164.533585    -47.939037    -3.968895    -1.582089    35.130779    2.414413    -3.375535    0.702822    -7.274628    1.846991    0.326122    3.842213    -0.041489    -15.938379    12.284313    -0.025114    -15.463699    6.712734    6.953815    -17.105499    -35.041191    22.283276    -47.252274    -8.073963    -7.701380    -116.146568    0.884550    -20.362461    -5.895139    -16.541866    -4.919191    -5.262522    18.902346    -22.760254    52.754345    -8.915210    -14.352164    47.229736    6.690913    -8.632298    32.177498    7.995165    -8.060440    -6.120170    -10.833658    20.394531    -19.469849    2.606434    -12.571796    44.536621    0.000000    0.000000    0.000000    5.046906    -7.898144    2.055524    7.780305    11.908249    -14.974594    -2.811368    -2.497448    -14.365371    0.000000    0.000000    0.000000    
-13.533512    164.535217    -47.902271    -3.957088    -1.606676    35.071857    2.394971    -3.417167    0.690734    -7.268826    1.880384    0.324075    3.843583    -0.089475    -15.906754    12.296620    0.095794    -15.443578    6.691534    6.938654    -17.062922    -35.083385    22.239176    -47.277050    -8.052125    -7.722233    -116.146080    0.841690    -20.346865    -5.916006    -16.552120    -4.915604    -5.232888    18.961414    -22.755610    52.791271    -8.884995    -14.442204    47.203587    6.740414    -8.727593    32.144932    7.958975    -7.961347    -6.041591    -10.779140    20.361591    -19.491045    2.638042    -12.589527    44.522545    0.000000    0.000000    0.000000    5.035408    -7.875385    2.088327    7.773321    11.988538    -14.939436    -2.764008    -2.540563    -14.404652    0.000000    0.000000    0.000000    
-13.413870    164.536102    -47.868267    -3.943053    -1.636676    35.017361    2.374812    -3.460173    0.687470    -7.256887    1.925959    0.325543    3.838628    -0.105555    -15.887848    12.336236    0.169541    -15.426001    6.664783    6.941810    -17.039639    -35.088764    22.213512    -47.304340    -7.961575    -7.792923    -116.203316    0.849648    -20.288340    -5.834063    -16.572105    -4.906200    -5.228450    19.034449    -22.727509    52.832394    -8.870569    -14.551003    47.199944    6.914562    -8.802748    32.032463    7.927276    -7.859700    -5.989723    -10.742453    20.329729    -19.541801    2.701699    -12.584939    44.547665    0.000000    0.000000    0.000000    5.023918    -7.849989    2.121603    7.765607    12.072250    -14.921813    -2.701005    -2.589784    -14.439759    0.000000    0.000000    0.000000    
-13.297868    164.531128    -47.824963    -3.919958    -1.677476    34.967632    2.343988    -3.486747    0.679629    -7.254611    1.961730    0.325304    3.860555    -0.111365    -15.863900    12.384513    0.246773    -15.406073    6.665737    6.943501    -17.041655    -35.128792    22.185747    -47.349155    -8.017509    -7.824844    -116.165649    0.883467    -20.397503    -5.887843    -16.539410    -4.874866    -5.215865    19.077156    -22.723755    52.873688    -8.854085    -14.632488    47.201176    6.922353    -8.894315    31.979153    7.902379    -7.743417    -5.940487    -10.711744    20.298346    -19.590612    2.743069    -12.609093    44.572464    0.000000    0.000000    0.000000    5.006441    -7.811545    2.198315    7.789683    12.161307    -14.950445    -2.678313    -2.647197    -14.476086    0.000000    0.000000    0.000000    
-13.184839    164.524750    -47.775650    -3.900288    -1.724674    34.926193    2.313513    -3.508740    0.652188    -7.245339    1.984194    0.317598    3.878843    -0.093567    -15.828142    12.435576    0.310817    -15.370666    6.650404    6.958793    -17.046888    -35.143253    22.212809    -47.356339    -7.959450    -7.965610    -116.185776    0.904887    -20.447615    -5.893107    -16.485958    -4.875651    -5.193988    19.108770    -22.696323    52.925926    -8.839288    -14.662061    47.192699    6.935300    -8.929208    31.962547    7.886099    -7.628739    -5.871808    -10.666709    20.279892    -19.690716    2.778807    -12.644079    44.600235    0.000000    0.000000    0.000000    4.995427    -7.755981    2.253311    7.810056    12.223886    -14.967764    -2.670072    -2.705520    -14.496285    0.000000    0.000000    0.000000    
-13.081733    164.517471    -47.721809    -3.869513    -1.776232    34.896191    2.253379    -3.503507    0.627297    -7.226530    1.981798    0.309325    3.932298    -0.076946    -15.806994    12.462557    0.391157    -15.360983    6.673402    6.974010    -17.071018    -35.186733    22.239975    -47.372032    -7.898275    -8.091204    -116.186729    0.914544    -20.473387    -5.897231    -16.435364    -4.855535    -5.196581    19.156097    -22.675463    52.984085    -8.824936    -14.657561    47.166897    6.926097    -8.935099    31.972916    7.869412    -7.506904    -5.804221    -10.635651    20.259443    -19.747786    2.816721    -12.664830    44.595451    0.000000    0.000000    0.000000    4.981818    -7.686595    2.301872    7.820729    12.281960    -14.971543    -2.620501    -2.769729    -14.530719    0.000000    0.000000    0.000000    
-12.977605    164.508621    -47.662689    -3.837829    -1.834855    34.872337    2.200942    -3.495412    0.590486    -7.203286    1.976923    0.297158    3.993376    -0.073321    -15.778438    12.441240    0.494596    -15.354159    6.690828    7.006445    -17.078880    -35.195770    22.311508    -47.400940    -7.814579    -8.296767    -116.189377    0.849268    -20.537018    -5.890268    -16.388102    -4.829639    -5.187829    19.148703    -22.613726    53.020813    -8.858083    -14.688344    47.145836    6.942511    -8.948656    31.985874    7.861378    -7.374535    -5.748176    -10.616275    20.231274    -19.807335    2.866763    -12.683709    44.591064    0.000000    0.000000    0.000000    4.969453    -7.599761    2.350820    7.839219    12.318170    -15.011095    -2.601782    -2.833612    -14.528074    0.000000    0.000000    0.000000    
-12.879765    164.500793    -47.599007    -3.811291    -1.889468    34.851639    2.134056    -3.499193    0.568346    -7.148787    1.978781    0.289491    3.990462    -0.053685    -15.768863    12.481374    0.593199    -15.348274    6.684760    7.022163    -17.126020    -35.219872    22.350079    -47.387714    -7.728580    -8.426947    -116.244049    0.883813    -20.541626    -5.707124    -16.375942    -4.803857    -5.191896    19.176697    -22.577637    53.050316    -8.871137    -14.655429    47.137833    6.936306    -8.912158    31.981577    7.860438    -7.245005    -5.710157    -10.601491    20.193499    -19.882833    2.899014    -12.714474    44.613392    0.000000    0.000000    0.000000    4.961680    -7.515522    2.397137    7.853701    12.349636    -15.030931    -2.587273    -2.900654    -14.546428    0.000000    0.000000    0.000000    
